<mxfile host="app.diagrams.net" modified="2023-12-04T13:38:50.685Z" agent="Mozilla/5.0 (Macintosh; Intel Mac OS X 10_15_7) AppleWebKit/537.36 (KHTML, like Gecko) Chrome/119.0.0.0 Safari/537.36" etag="CCKnfgcSn9SoBSLLwSDz" version="22.1.5" type="device">
  <diagram name="ページ1" id="9ssscoNkT--zj7rhmOJh">
    <mxGraphModel dx="801" dy="509" grid="1" gridSize="10" guides="1" tooltips="1" connect="1" arrows="1" fold="1" page="1" pageScale="1" pageWidth="827" pageHeight="1169" math="0" shadow="0">
      <root>
        <mxCell id="0" />
        <mxCell id="1" parent="0" />
        <mxCell id="WG8yNtbO-uUZoeQVU8j9-3" value="" style="rounded=0;whiteSpace=wrap;html=1;fillColor=#eeeeee;strokeColor=none;" vertex="1" parent="1">
          <mxGeometry x="470" y="10" width="170" height="390" as="geometry" />
        </mxCell>
        <mxCell id="WG8yNtbO-uUZoeQVU8j9-2" value="" style="rounded=0;whiteSpace=wrap;html=1;fillColor=#eeeeee;strokeColor=none;" vertex="1" parent="1">
          <mxGeometry x="245" y="10" width="170" height="390" as="geometry" />
        </mxCell>
        <mxCell id="WG8yNtbO-uUZoeQVU8j9-1" value="" style="rounded=0;whiteSpace=wrap;html=1;fillColor=#eeeeee;strokeColor=none;" vertex="1" parent="1">
          <mxGeometry x="10" y="10" width="170" height="390" as="geometry" />
        </mxCell>
        <mxCell id="ei3zQxrxWijMxOkJ_b1_-6" value="" style="verticalLabelPosition=bottom;sketch=0;html=1;fillColor=#282828;strokeColor=none;verticalAlign=top;pointerEvents=1;align=center;shape=mxgraph.cisco_safe.people_places_things_icons.icon9;" parent="1" vertex="1">
          <mxGeometry x="305" y="340" width="50" height="45" as="geometry" />
        </mxCell>
        <mxCell id="ei3zQxrxWijMxOkJ_b1_-7" value="" style="verticalLabelPosition=bottom;sketch=0;html=1;fillColor=#282828;strokeColor=none;verticalAlign=top;pointerEvents=1;align=center;shape=mxgraph.cisco_safe.people_places_things_icons.icon9;" parent="1" vertex="1">
          <mxGeometry x="530" y="340" width="50" height="45" as="geometry" />
        </mxCell>
        <mxCell id="ei3zQxrxWijMxOkJ_b1_-8" value="ここの部分、技術的に難易度高くて&lt;br&gt;リスクあるんだけど、&lt;br&gt;重要度ってどんな感じ？" style="shape=callout;whiteSpace=wrap;html=1;perimeter=calloutPerimeter;position2=0;size=20;position=0.05;" parent="1" vertex="1">
          <mxGeometry x="330" y="150" width="225" height="70" as="geometry" />
        </mxCell>
        <mxCell id="ei3zQxrxWijMxOkJ_b1_-9" value="あー、そこそんな重要じゃないから、&lt;br&gt;技術的に簡単な方法でいいよー" style="shape=callout;whiteSpace=wrap;html=1;perimeter=calloutPerimeter;size=30;position=0.86;position2=1;" parent="1" vertex="1">
          <mxGeometry x="330" y="210" width="225" height="60" as="geometry" />
        </mxCell>
        <mxCell id="ei3zQxrxWijMxOkJ_b1_-10" value="おk" style="shape=callout;whiteSpace=wrap;html=1;perimeter=calloutPerimeter;position2=0;size=20;position=0.05;" parent="1" vertex="1">
          <mxGeometry x="330" y="250" width="60" height="40" as="geometry" />
        </mxCell>
        <mxCell id="ei3zQxrxWijMxOkJ_b1_-13" value="" style="verticalLabelPosition=bottom;sketch=0;html=1;fillColor=#282828;strokeColor=none;verticalAlign=top;pointerEvents=1;align=center;shape=mxgraph.cisco_safe.people_places_things_icons.icon9;" parent="1" vertex="1">
          <mxGeometry x="70" y="340" width="50" height="45" as="geometry" />
        </mxCell>
        <mxCell id="ei3zQxrxWijMxOkJ_b1_-15" value="ここの部分、そのまま実装すると&lt;br&gt;結構難しいっす。&lt;br&gt;簡単な代替手段があるんだけど、どう？" style="shape=callout;whiteSpace=wrap;html=1;perimeter=calloutPerimeter;position2=0;size=20;position=0.05;" parent="1" vertex="1">
          <mxGeometry x="95" y="60" width="225" height="70" as="geometry" />
        </mxCell>
        <mxCell id="ei3zQxrxWijMxOkJ_b1_-16" value="代替手段で実装しちゃって！&lt;br&gt;仕様書も変更するわ" style="shape=callout;whiteSpace=wrap;html=1;perimeter=calloutPerimeter;position2=1;size=20;position=0.86;" parent="1" vertex="1">
          <mxGeometry x="95" y="280" width="225" height="50" as="geometry" />
        </mxCell>
        <mxCell id="ei3zQxrxWijMxOkJ_b1_-17" value="聞いてみるー" style="shape=callout;whiteSpace=wrap;html=1;perimeter=calloutPerimeter;position2=1;size=20;position=0.74;" parent="1" vertex="1">
          <mxGeometry x="225" y="120" width="95" height="40" as="geometry" />
        </mxCell>
        <mxCell id="ei3zQxrxWijMxOkJ_b1_-18" value="りょ" style="shape=callout;whiteSpace=wrap;html=1;perimeter=calloutPerimeter;position2=0;size=20;position=0.05;" parent="1" vertex="1">
          <mxGeometry x="95" y="320" width="60" height="40" as="geometry" />
        </mxCell>
        <mxCell id="ei3zQxrxWijMxOkJ_b1_-19" value="開発・Mobile（ベトナム）" style="rounded=0;whiteSpace=wrap;html=1;fillColor=#d5e8d4;strokeColor=#82b366;" parent="1" vertex="1">
          <mxGeometry x="20" y="20" width="150" height="20" as="geometry" />
        </mxCell>
        <mxCell id="ei3zQxrxWijMxOkJ_b1_-20" value="開発・Mobile（日本）" style="rounded=0;whiteSpace=wrap;html=1;fillColor=#dae8fc;strokeColor=#6c8ebf;" parent="1" vertex="1">
          <mxGeometry x="255" y="20" width="150" height="20" as="geometry" />
        </mxCell>
        <mxCell id="ei3zQxrxWijMxOkJ_b1_-21" value="プロダクト" style="rounded=0;whiteSpace=wrap;html=1;fillColor=#f5f5f5;strokeColor=#666666;fontColor=#333333;" parent="1" vertex="1">
          <mxGeometry x="515" y="20" width="80" height="20" as="geometry" />
        </mxCell>
      </root>
    </mxGraphModel>
  </diagram>
</mxfile>
